<?xml version="1.0" standalone="no"?>
<!DOCTYPE svg PUBLIC "-//W3C//DTD SVG 20010904//EN"
 "http://www.w3.org/TR/2001/REC-SVG-20010904/DTD/svg10.dtd">
<svg version="1.0" xmlns="http://www.w3.org/2000/svg"
 width="1000.000000pt" height="1000.000000pt" viewBox="0 0 1000.000000 1000.000000"
 preserveAspectRatio="xMidYMid meet">
<g transform="translate(0.000000,1000.000000) scale(0.100000,-0.100000)"
fill="#4285F4" stroke="none">
<path d="M4895 8784 c-16 -2 -79 -9 -140 -15 -717 -71 -1355 -373 -1864 -880
-551 -551 -850 -1176 -958 -2004 -28 -219 -25 -770 5 -995 115 -845 440 -1487
1039 -2051 464 -438 1043 -702 1739 -796 163 -22 722 -25 884 -5 508 62 909
201 1272 440 403 266 764 656 997 1076 59 107 146 295 139 300 -6 6 -1065 456
-1071 456 -4 0 -7 -5 -7 -11 0 -6 -26 -63 -58 -127 -294 -586 -724 -910 -1358
-1024 -113 -20 -161 -23 -389 -22 -233 0 -271 2 -365 22 -358 78 -656 239
-940 509 -396 376 -619 831 -692 1413 -19 154 -16 553 5 710 72 519 267 935
603 1289 299 314 635 509 1019 591 128 28 432 38 597 21 679 -71 1169 -427
1470 -1069 28 -59 51 -108 53 -110 2 -2 1087 447 1094 454 2 2 -17 52 -44 111
-148 330 -362 639 -620 898 -492 492 -1028 740 -1755 810 -129 13 -569 18
-655 9z"/>
</g>
</svg>
